<svg width="97" height="78" viewBox="0 0 97 78" fill="none" xmlns="http://www.w3.org/2000/svg">
<path d="M58.2 40.9302V19.5H38.8V40.9302L24.3773 65.9146C23.9151 67.0556 24.779 68.2957 26.0036 68.2485L31.5568 68.25L35.3777 72.5949C36.2204 73.4891 37.7012 73.2103 38.165 72.0693L48.5 53.625L58.8366 72.0693C59.2988 73.2103 60.7811 73.4891 61.6238 72.5949L65.4432 68.25L70.9964 68.2485C72.2211 68.2957 73.085 67.0556 72.6227 65.9146L58.2 40.9302ZM33.95 39.6185V17.6627C32.4889 17.2895 31.0385 16.8721 29.6077 16.3876L10.3654 9.86884C8.08738 9.39657 5.7806 10.367 4.753 12.119C-1.58383 22.9262 -1.58383 45.3223 4.753 56.1295C5.7806 57.8815 8.08889 58.8535 10.3654 58.3797L26.2188 53.0111L33.95 39.6185ZM92.247 12.1205C91.2194 10.3685 88.9111 9.39657 86.6347 9.87036L67.3923 16.3876C65.9615 16.8721 64.5111 17.291 63.05 17.6627V39.6185L70.7812 53.0126L86.6347 58.3812C88.9126 58.8535 91.2194 57.883 92.247 56.1311C98.5838 45.3238 98.5838 22.9277 92.247 12.1205Z" fill="white"/>
</svg>
