<svg width="73" height="50" viewBox="0 0 73 50" fill="none" xmlns="http://www.w3.org/2000/svg">
<path d="M14.0289 1.02967C14.2699 1.27141 14.5108 1.61955 14.5119 1.96975C14.5129 2.57513 13.8075 3.39641 12.5033 4.74558C7.06524 10.0214 4.32979 16.4822 4.34824 24.2745C4.36875 32.8954 7.24569 39.8189 12.8376 45.1846C14.0136 46.2435 14.4965 47.0762 14.4985 47.789C14.4985 48.1381 14.2596 48.5018 14.0197 48.852C13.7942 49.0948 13.3133 49.3386 12.9668 49.3386C11.6728 49.3417 9.8622 47.8003 7.49791 44.8014C2.89439 39.1164 0.813074 32.8386 0.696192 24.2828C0.588538 15.7229 3.25222 9.9181 8.46577 3.92533C10.342 1.7838 11.9066 0.671201 12.9739 0.669135C13.3205 0.668102 13.6814 0.787937 14.0289 1.02967Z" fill="white"/>
<path d="M42.5922 25.8161C40.5488 25.2903 48.9336 15.3089 34.0311 3.35846C34.0311 3.35846 35.9863 9.61776 26.1272 23.5857C16.263 37.5485 30.5134 45.8667 30.5134 45.8667C30.5134 45.8667 23.8255 42.2758 31.6002 29.4907C32.9915 27.1715 34.8124 25.0713 37.0731 20.344C37.0731 20.344 39.0745 23.1901 38.0297 29.3605C36.4672 38.6849 44.8058 36.0165 44.935 36.1467C47.8478 39.6023 42.5225 45.6756 42.1985 45.8667C41.8755 46.0527 57.4065 36.4535 46.3724 22.0072C45.6168 22.7686 44.6346 26.343 42.5922 25.8161Z" fill="white"/>
<path d="M58.9803 1.02271C58.7394 1.26445 58.4985 1.61259 58.4974 1.9628C58.4964 2.56817 59.2018 3.38945 60.506 4.73862C65.9441 10.0134 68.6795 16.4752 68.661 24.2675C68.6405 32.8884 65.7636 39.812 60.1717 45.1777C58.9957 46.2366 58.5128 47.0692 58.5108 47.782C58.5108 48.1312 58.7497 48.4948 58.9896 48.845C59.2151 49.0878 59.696 49.3306 60.0425 49.3316C61.3364 49.3347 63.1471 47.7934 65.5114 44.7944C70.1149 39.1095 72.1962 32.8316 72.3131 24.2758C72.4207 15.7159 69.7571 9.91114 64.5435 3.91838C62.6673 1.77685 61.1027 0.664243 60.0354 0.662177C59.6888 0.661144 59.3279 0.780979 58.9803 1.02271Z" fill="white"/>
</svg>
