<svg width="234" height="89" viewBox="0 0 234 89" fill="none" xmlns="http://www.w3.org/2000/svg">
<path d="M78 82.2928C77.792 82.1638 77.064 81.9316 76.388 81.751C75.686 81.5962 75.14 81.3383 75.14 81.2093C75.14 81.0545 74.932 81.0287 74.698 81.1061C74.438 81.2093 74.334 81.2093 74.438 81.1061C74.646 80.8997 73.632 79.971 73.19 79.971C73.008 79.971 72.8 79.7904 72.722 79.6099C72.644 79.4035 72.176 79.0165 71.708 78.7843C70.356 78.1136 68.016 76.54 67.782 76.1788C67.626 75.8951 61.048 75.8435 33.8 75.8435C11.518 75.8435 0 75.7661 0 75.5855C0 75.4049 11.362 75.3017 33.202 75.2759L66.378 75.1985L65.234 74.4246C64.142 73.7023 63.05 72.7736 60.84 70.6841C58.604 68.5945 58.942 68.6461 57.564 70.1423C56.888 70.8646 56.264 71.3806 56.134 71.329C56.03 71.2516 55.874 71.3032 55.77 71.458C55.692 71.587 55.068 71.9739 54.392 72.2835C52.676 73.0574 50.492 72.98 48.88 72.0513C47.658 71.329 46.02 69.8327 46.02 69.3942C46.02 69.2652 45.734 68.5429 45.37 67.7948C45.032 67.0467 44.564 65.9116 44.356 65.2667C43.784 63.4609 43.316 57.6565 43.524 54.8962C43.628 53.5806 43.758 51.5684 43.836 50.4333C43.966 48.2148 44.382 45.5835 44.72 44.758C45.188 43.6745 45.162 42.6684 44.694 41.1722C44.408 40.3209 44.122 39.16 44.044 38.5925C43.966 37.9991 43.68 36.8383 43.42 35.987C42.692 33.5362 42.146 31.4209 41.99 30.3116C41.886 29.7441 41.73 28.9443 41.6 28.5058C41.028 26.5968 40.586 24.4557 40.326 22.4435C40.17 21.231 39.91 19.838 39.78 19.3478C39.39 17.9548 39.468 17.1809 40.04 16.8197C40.82 16.3296 41.496 16.8197 41.99 18.2386C42.666 20.2249 43.498 21.7212 44.408 22.753C45.032 23.4496 45.266 23.9139 45.188 24.4041C45.084 25.307 44.694 25.4359 43.94 24.7652C43.16 24.0945 42.952 24.1203 43.082 24.8426C43.966 30.1568 44.096 30.7243 45.214 34.4649C45.526 35.471 45.76 36.3997 45.76 36.5803C45.76 36.7351 45.89 37.1736 46.02 37.5606C46.306 38.3087 46.696 38.1797 46.878 37.2768C46.93 36.993 47.164 36.3223 47.424 35.8064C47.658 35.2646 47.84 34.6971 47.84 34.5165C47.84 34.3359 48.282 33.3041 48.802 32.2464C49.322 31.1887 49.738 30.2342 49.712 30.131C49.634 29.8472 53.326 24.5072 54.158 23.6817C54.548 23.2948 54.86 23.0368 54.86 23.0884C54.86 23.1658 55.276 22.9852 55.796 22.7272C57.096 22.0307 58.24 22.4177 59.982 24.0687C61.594 25.5907 61.88 26.2614 61.204 26.7516C60.814 27.0354 60.58 26.9838 59.566 26.4162C58.916 26.0551 58.188 25.5133 57.928 25.2554C57.278 24.5072 56.368 24.662 55.172 25.6939C53.768 26.8806 51.792 29.4087 51.428 30.4922C51.272 30.9565 50.986 31.5241 50.804 31.7304C50.622 31.9368 50.388 32.427 50.31 32.8397C50.206 33.2267 50.024 33.6136 49.894 33.691C49.764 33.7684 49.66 34.0264 49.66 34.2585C49.66 34.5165 49.426 35.1614 49.14 35.729C48.854 36.2965 48.62 36.9414 48.62 37.1994C48.62 37.4316 48.516 37.6896 48.386 37.767C47.944 38.0507 47.502 41.3012 47.684 43.0038C47.866 44.6806 48.438 46.4864 49.01 47.2087C49.192 47.4151 49.4 47.9826 49.504 48.4728C49.816 50.2012 52.988 56.4183 54.886 59.0496C55.458 59.8235 55.9 60.5974 55.9 60.778C55.9 60.9328 56.212 61.4229 56.628 61.8357C57.018 62.2742 57.486 62.9191 57.694 63.2803C57.902 63.6414 58.24 64.0284 58.448 64.1058C58.916 64.2864 59.722 63.6157 59.956 62.8417C60.034 62.558 60.268 62.1194 60.45 61.913C60.606 61.7067 60.918 61.1133 61.1 60.6232C61.282 60.133 61.646 59.4881 61.88 59.2043C62.14 58.9206 62.426 58.2241 62.504 57.6823C62.608 57.1406 62.868 56.4441 63.05 56.1345C63.232 55.8249 63.492 55.1542 63.57 54.6383C63.674 54.0965 63.856 53.658 64.012 53.658C64.142 53.658 64.168 53.5548 64.09 53.4C64.012 53.271 64.038 53.142 64.168 53.142C64.298 53.142 64.402 52.9872 64.402 52.8325C64.402 52.6519 64.714 51.2846 65.078 49.7884C65.468 48.2922 65.832 46.5638 65.936 45.9188C66.196 44.1388 66.118 36.993 65.832 36.0386C65.676 35.6 65.572 35.0325 65.572 34.8261C65.598 34.0264 63.726 28.1962 62.842 26.313C62.686 25.9519 62.036 24.9458 61.438 24.0687C60.814 23.1658 60.32 22.3661 60.32 22.2629C60.32 21.9017 57.33 18.8319 56.992 18.8319C56.836 18.8319 56.68 18.6771 56.68 18.5223C56.654 18.3417 56.16 17.8258 55.562 17.3872C54.6 16.6907 54.366 16.6391 53.56 16.8197C53.066 16.9487 52.364 17.3614 52.026 17.7226C51.402 18.3933 51.376 18.3933 51.142 17.8516C50.96 17.4388 51.064 17.1293 51.61 16.407C52 15.891 52.572 15.4525 52.884 15.4525C53.17 15.4267 53.716 15.3751 54.08 15.3493C54.938 15.2461 56.628 16.2264 57.798 17.5162C58.318 18.1096 58.864 18.5739 59.02 18.5739C59.15 18.5739 59.28 18.7029 59.28 18.8319C59.28 18.9867 59.67 19.451 60.138 19.8638C60.632 20.2765 61.49 21.36 62.088 22.2371C62.686 23.14 63.258 23.9913 63.388 24.1203C63.882 24.7652 64.74 26.3646 64.74 26.7C64.74 26.9064 64.974 27.4481 65.26 27.9125C65.546 28.3768 65.78 29.0475 65.78 29.4345C65.78 29.7957 65.884 30.1826 65.988 30.3374C66.3 30.6728 66.742 32.2206 66.95 33.5362C67.054 34.1812 67.236 34.8261 67.366 34.9551C67.834 35.5484 68.068 41.9461 67.756 45.0159C67.522 47.1055 66.898 50.098 66.3 51.9812C66.04 52.8325 65.624 54.2255 65.39 55.0768C65.156 55.9281 64.74 57.089 64.48 57.6565C64.246 58.2241 63.83 59.1012 63.596 59.6429C63.362 60.1588 63.18 60.6748 63.18 60.8296C63.18 61.2165 62.192 63.3061 61.698 64.0026C60.164 66.0664 60.19 66.7113 61.958 68.3881C63.804 70.1939 64.09 70.4261 64.376 70.4261C64.506 70.4261 65.052 70.8388 65.598 71.329C66.144 71.8191 66.898 72.3867 67.288 72.593C67.678 72.7994 68.224 73.1864 68.51 73.4443C68.796 73.7023 69.576 74.2441 70.252 74.631L71.474 75.3275H76.934H82.42L82.446 73.9861C82.446 72.6446 82.524 70.6325 82.784 63.4609C82.94 59.9267 83.096 56.831 83.356 52.8841C83.434 51.6716 83.538 50.0464 83.59 49.2725C83.668 47.8536 83.824 45.6093 84.11 41.0174C84.214 39.6759 84.318 37.8186 84.37 36.8899C84.396 35.9612 84.526 34.8003 84.604 34.3101C84.682 33.82 84.812 31.7046 84.864 29.6151C84.942 27.5255 85.124 25.5907 85.28 25.307C85.436 24.9974 85.826 24.7652 86.164 24.7652C87.282 24.7652 87.438 25.307 87.282 28.4542C87.204 30.0278 87.074 31.6272 86.996 31.9626C86.918 32.3238 86.788 34.4649 86.71 36.7351C86.606 39.031 86.502 41.069 86.45 41.2754C86.398 41.4817 86.268 42.8748 86.19 44.371C86.112 45.8672 85.93 48.7307 85.774 50.7429C85.618 52.7551 85.566 54.5093 85.618 54.6383C85.696 54.7414 85.644 55.6959 85.514 56.7536C85.176 59.3591 84.968 70.1681 85.28 70.1681C85.384 70.1681 85.566 69.8327 85.67 69.3942C85.774 68.9814 85.956 68.6203 86.086 68.6203C86.216 68.6203 86.372 68.3365 86.476 67.9754C86.554 67.6142 86.736 67.3304 86.866 67.3304C86.996 67.3304 87.1 67.2014 87.1 67.0467C87.1 66.5049 90.142 62.2742 91.728 60.5716C92.638 59.6171 94.146 58.2241 95.108 57.4501C96.876 56.0055 99.58 54.4835 99.58 54.922C99.58 55.1284 101.348 54.8704 101.504 54.6383C102.128 53.8128 102.83 52.7293 102.83 52.6261C102.856 52.3165 104.494 50.5365 105.508 49.7368C107.042 48.4986 107.536 48.447 109.98 49.1693C111.176 49.5304 112.58 51.3362 113.256 53.3484L113.698 54.7414L115.284 53.0646C118.144 50.0464 119.964 49.2725 120.77 50.7945C121.342 51.9038 121.42 53.8128 121.004 55.9023C120.614 57.8371 120.588 59.6429 120.952 59.4365C121.056 59.3591 121.16 59.127 121.16 58.9206C121.16 58.7142 121.264 58.5594 121.394 58.5594C121.524 58.5594 121.68 58.353 121.784 58.1209C122.174 56.9342 124.8 53.2452 126.412 51.5942C126.906 51.1041 127.608 50.2528 127.998 49.711C128.856 48.5759 132.106 46.6154 134.16 45.9962C136.058 45.4287 140.478 45.5061 142.038 46.1252C142.428 46.3058 143.026 46.4864 143.39 46.538C143.728 46.5896 144.43 46.8475 144.924 47.0797C145.704 47.4409 145.99 47.4667 146.822 47.2087C147.368 47.0281 147.914 46.7959 148.044 46.667C148.33 46.409 149.604 46.3574 150.462 46.5896C150.774 46.667 151.216 47.1571 151.45 47.6472C151.866 48.4986 151.866 48.5759 151.398 49.0919C150.722 49.8916 150.54 49.9948 149.994 49.8658C149.422 49.711 147.94 50.2528 147.94 50.6139C147.94 50.7429 147.784 50.8203 147.628 50.7687C147.16 50.6913 143.13 52.0585 141.7 52.7809C140.348 53.4516 138.06 55.3864 138.06 55.8249C138.06 56.1603 139.23 56.0571 142.194 55.4896C143.988 55.1284 147.056 55.3606 148.148 55.9281L148.98 56.3667L149.76 55.5412C150.202 55.0768 150.54 54.6641 150.54 54.5867C150.54 54.4835 150.748 54.2255 151.008 53.9675C151.242 53.7096 151.684 53.1936 151.97 52.8067C152.438 52.1617 153.764 51.4652 154.284 51.5684C154.96 51.6974 155.116 51.0009 155.038 48.0084C154.96 45.0675 154.96 44.9128 155.532 44.5258C156.338 43.9583 156.65 44.0099 157.534 44.8612C158.366 45.6609 158.808 47.2603 159.068 50.2785C159.224 52.2391 159.198 56.1861 159.016 58.4304C158.938 59.2817 158.938 59.8235 159.016 59.6687C159.38 58.8174 160.914 59.9267 160.862 60.9585C160.836 61.3455 160.706 61.6551 160.576 61.6551C160.472 61.6551 160.446 61.9388 160.524 62.3C160.628 62.6612 160.576 62.9449 160.446 62.9449C160.264 62.9449 159.614 64.9571 159.51 65.9116C159.484 66.0664 159.406 66.3501 159.328 66.5565C158.886 67.5884 158.34 69.4716 158.34 69.9875C158.34 70.5551 156.936 72.0513 156.65 71.7675C156.572 71.6901 156.52 71.7417 156.52 71.8707C156.52 71.9997 156.078 72.1287 155.558 72.1803C154.882 72.2319 154.44 72.4383 154.076 72.9284C153.764 73.2896 153.192 73.9861 152.776 74.4762L152.048 75.3275L159.406 75.3017C163.462 75.2759 166.556 75.1985 166.27 75.147C165.984 75.0696 165.62 74.8116 165.412 74.5794C165.074 74.1667 163.748 71.458 163.748 71.2C163.748 71.1226 163.618 70.8904 163.436 70.6841C163.072 70.2713 162.396 67.8464 162.604 67.6658C162.656 67.5884 162.552 67.0725 162.37 66.4791C161.98 65.3183 161.46 61.6809 161.33 59.2559C161.226 57.6307 161.148 57.3728 160.68 57.6565C160.472 57.7855 160.472 57.9403 160.706 58.1983C160.862 58.4046 160.914 58.5594 160.784 58.5594C160.446 58.5594 159.718 58.0435 160.03 58.0435C160.186 58.0435 160.082 57.9145 159.848 57.7597C159.588 57.6307 159.38 57.347 159.38 57.1406C159.38 56.9342 159.588 56.6504 159.848 56.5214C160.108 56.3667 160.16 56.2377 159.952 56.2377C159.718 56.2377 159.64 55.4638 159.614 53.2194C159.614 51.5426 159.588 49.0145 159.562 47.5956C159.536 46.1768 159.588 44.5516 159.692 43.9841C159.848 42.978 160.212 38.5151 160.212 37.6122C160.186 37.3542 160.264 37.1478 160.368 37.1478C160.472 37.1478 160.524 36.7093 160.472 36.1417C160.394 35.3936 160.498 35.0067 160.992 34.4907C161.33 34.1296 161.772 33.82 161.98 33.7942C162.63 33.691 163.54 34.1038 163.54 34.4649C163.54 34.6713 163.67 34.8261 163.826 34.8261C164.008 34.8261 164.086 35.4194 164.008 36.5029C163.982 37.4316 164.008 38.1797 164.112 38.1797C164.19 38.1797 164.216 38.4119 164.138 38.6957C164.06 38.9794 163.904 39.2116 163.774 39.2116C163.462 39.2116 163.462 48.1632 163.774 48.3438C163.904 48.447 163.904 48.8081 163.722 49.2467C163.514 49.8142 163.514 50.1754 163.748 50.6655C163.956 51.1299 163.956 51.362 163.774 51.491C163.566 51.5942 163.592 51.7232 163.826 51.878C164.112 52.0328 164.112 52.1617 163.878 52.3939C163.644 52.6261 163.644 52.8067 163.878 53.1678C164.112 53.5548 164.112 53.787 163.852 54.1739C163.67 54.4577 163.644 54.6899 163.774 54.6899C163.982 54.6899 164.32 56.8826 164.45 59.2043C164.502 59.7719 164.658 60.9328 164.814 61.7583C164.97 62.6096 165.048 63.3319 164.996 63.4093C164.944 63.4609 165.1 64.1316 165.36 64.9055C165.646 65.6794 165.906 66.7371 165.984 67.2788C166.114 68.4139 166.374 69.1362 166.66 69.1362C166.764 69.1362 166.92 69.4716 166.998 69.9101C167.154 70.6325 167.986 71.7159 168.402 71.7159C168.714 71.7159 170.274 69.8327 170.456 69.2652C170.768 68.2591 171.21 67.3304 171.392 67.3304C171.522 67.3304 171.6 67.0983 171.6 66.8145C171.6 66.5307 171.704 66.2985 171.834 66.2985C171.964 66.2985 172.016 66.0664 171.938 65.7826C171.86 65.4988 171.912 65.2667 172.042 65.2667C172.302 65.2667 173.42 61.913 173.524 60.7522C173.628 59.8751 174.226 58.5594 174.512 58.5594C174.642 58.5594 174.668 58.4304 174.59 58.2757C174.486 58.1467 174.538 57.7081 174.694 57.3212C175.032 56.4441 176.254 51.0009 176.592 48.7565C176.722 47.8278 176.93 47.0281 177.034 46.9507C177.216 46.8217 177.554 45.1965 177.71 43.4681C177.762 43.0554 178.1 41.2496 178.464 39.4696C178.828 37.6896 179.14 35.987 179.14 35.6774C179.14 35.342 179.27 35.0841 179.4 35.0841C179.556 35.0841 179.66 34.4649 179.66 33.7168C179.66 32.9429 179.738 32.2464 179.842 32.1432C180.05 31.9368 180.128 31.6014 180.414 29.1507C180.856 25.5391 181.48 22.7014 181.844 22.7014C182 22.7014 181.948 22.5725 181.74 22.4435C181.48 22.2629 181.428 22.1339 181.636 22.0049C181.948 21.7728 182.208 20.8957 182.416 19.2704C182.52 18.6771 182.91 16.7939 183.3 15.1171C183.716 13.4145 184.002 11.9441 183.924 11.8409C183.872 11.7377 183.924 11.6087 184.054 11.5571C184.21 11.5313 184.366 11.067 184.418 10.5768C184.548 9.69971 184.808 8.56464 185.562 5.75275C185.77 5.00464 186.03 4.38551 186.16 4.38551C186.29 4.38551 186.394 4.17913 186.394 3.94696C186.394 3.22464 186.836 1.49623 187.2 0.722319C187.512 0.0515942 187.668 0 188.994 0C190.32 0.0257971 190.398 0.0515942 189.956 0.386957C189.462 0.748116 188.786 2.32174 188.76 3.09565C188.76 3.30203 188.578 3.81797 188.37 4.23072C188.136 4.66928 187.902 5.28841 187.85 5.64957C187.72 6.65565 187.304 8.46145 186.836 10.1899C186.602 11.0154 186.42 11.9699 186.42 12.2794C186.42 12.589 186.238 13.1823 186.03 13.5693C185.822 13.982 185.64 14.627 185.64 15.0397C185.64 15.4267 185.536 15.7362 185.432 15.7362C185.328 15.7362 185.068 16.8713 184.886 18.2643C184.366 22.1339 184.288 22.5725 184.054 22.7014C183.924 22.8046 183.768 23.3206 183.69 23.8623C183.612 24.4299 183.456 25.5391 183.3 26.313C183.17 27.087 182.988 28.093 182.91 28.5058C182.858 28.9443 182.702 29.6409 182.624 30.0536C182.52 30.4922 182.416 31.1113 182.39 31.4725C182.026 35.5742 181.896 36.2707 181.584 36.4513C181.402 36.5545 181.298 36.7867 181.376 36.993C181.454 37.1736 181.324 38.1797 181.116 39.2374C180.414 42.6684 180.128 44.371 179.764 47.4667C179.686 48.2406 179.504 48.9371 179.4 49.0145C179.14 49.1693 178.932 50.0206 178.776 51.3362C178.672 52.3165 178.412 53.5806 178.152 54.1739C177.97 54.6641 177.866 55.3606 177.814 56.573C177.788 57.1664 177.658 57.5275 177.45 57.5275C177.242 57.5275 177.164 57.7339 177.242 58.0693C177.32 58.3788 177.268 58.6884 177.086 58.7916C176.904 58.8948 176.748 59.2817 176.696 59.6171C176.67 59.9525 176.566 60.4168 176.488 60.6232C176.28 61.1907 175.76 63.2545 175.656 63.8478C175.604 64.1316 175.526 64.3896 175.5 64.4412C175.474 64.467 175.422 64.5959 175.396 64.7249C175.396 64.8539 175.292 65.0603 175.188 65.1635C175.058 65.2667 174.98 65.6278 174.98 65.9632C174.98 66.2985 174.876 66.7629 174.746 67.0209C174.59 67.253 174.122 68.2849 173.68 69.2652C172.38 72.1545 172.276 72.3351 171.808 72.7736C171.548 73.0058 171.34 73.2896 171.34 73.4185C171.34 73.5475 170.976 74.0377 170.534 74.502L169.754 75.3275H201.864C223.106 75.3275 234 75.4049 234 75.5855C234 75.7661 220.064 75.8435 192.686 75.8435H151.372L150.982 76.4626C150.592 77.0301 150.384 77.0817 148.85 77.0301C147.42 77.0043 147.108 76.9012 146.744 76.411C146.354 75.8435 146.25 75.8177 140.972 75.8435C135.98 75.8693 135.512 75.9209 133.952 76.5142C131.846 77.2881 131.17 77.2881 130.468 76.4884L129.896 75.8435H107.718H85.54L85.124 76.4884C84.89 76.8496 84.604 77.0817 84.5 77.0043C84.37 76.927 84.188 77.2365 84.084 77.7009C83.798 79.1197 82.238 81.5962 81.718 81.493C81.614 81.4672 81.172 81.5704 80.73 81.751C80.314 81.9316 79.768 82.1122 79.56 82.1638C79.352 82.2154 78.988 82.3186 78.78 82.3959C78.572 82.4475 78.208 82.4217 78 82.2928ZM80.6 78.6296C81.094 78.32 82.16 76.6174 82.16 76.1272C82.16 75.9209 80.678 75.8435 77.168 75.8693C73.086 75.8693 72.28 75.9467 72.852 76.1788C73.216 76.3594 73.736 76.6948 74.022 76.927C74.282 77.1591 75.01 77.5977 75.66 77.9072C76.31 78.191 77.116 78.6038 77.48 78.8359C78.182 79.2487 79.742 79.1455 80.6 78.6296ZM130.286 74.7084C130.52 74.1925 130.754 74.1151 131.794 74.1151C133.302 74.1409 135.564 73.1348 138.71 71.0194C139.958 70.1939 141.206 69.3942 141.466 69.2394C141.752 69.0846 142.428 68.4655 143 67.898C143.546 67.3046 144.144 66.8145 144.3 66.8145C144.43 66.8145 144.56 66.6597 144.56 66.4791C144.56 66.2985 144.794 66.0148 145.08 65.8342C145.392 65.6536 145.548 65.3957 145.47 65.2667C145.392 65.1119 145.418 65.0087 145.574 65.0087C145.912 65.0087 147.186 62.4032 147.004 62.1194C146.926 61.9904 146.978 61.7583 147.108 61.5777C147.238 61.3971 147.42 60.8812 147.498 60.4168C147.654 59.7203 147.55 59.4365 147.004 58.8948C146.38 58.2757 146.276 58.2499 143.806 58.3788C142.402 58.4562 140.582 58.7142 139.75 58.9464C138.424 59.3333 137.072 59.3591 135.668 59.0238C135.408 58.9722 134.914 58.6368 134.55 58.3014C133.744 57.5533 133.692 56.4441 134.42 55.6701C134.732 55.3348 135.122 54.8962 135.33 54.6641C135.538 54.4319 135.72 54.1481 135.72 53.9933C135.72 53.7096 139.698 50.8203 140.114 50.8203C140.27 50.8203 140.4 50.7171 140.4 50.5623C140.4 50.4333 140.712 50.1496 141.128 49.9432C141.778 49.582 141.804 49.5562 141.258 49.5304C140.92 49.5304 140.66 49.4014 140.66 49.2467C140.66 48.8081 135.356 49.1693 134.394 49.6852C133.978 49.8916 133.51 49.9948 133.38 49.9174C133.12 49.7626 131.3 50.6139 130.754 51.1557C130.546 51.362 129.688 52.2907 128.83 53.271C127.972 54.2255 127.114 55.18 126.932 55.3606C126.75 55.5412 126.62 55.7991 126.62 55.9023C126.646 56.0055 126.36 56.4699 125.996 56.9342C125.606 57.3985 125.32 57.8629 125.32 57.9919C125.32 58.1209 125.138 58.3788 124.93 58.5594C124.592 58.8174 122.98 61.4229 122.746 62.042C122.304 63.2545 121.082 65.5762 120.51 66.247C119.626 67.3046 117.91 67.8206 117.312 67.2272C116.688 66.6081 116.766 63.6672 117.546 58.6626C117.832 56.6504 118.066 54.4319 117.936 54.4319C117.728 54.4319 116.74 55.438 116.74 55.6443C116.74 55.7991 116.558 56.0829 116.324 56.2635C116.09 56.4441 115.466 57.2954 114.92 58.1209C114.14 59.2817 113.88 59.9783 113.75 61.2165C113.386 64.7507 112.996 66.6339 112.476 67.4078C111.774 68.4139 110.838 68.6719 109.98 68.1043C108.68 67.2014 108.342 67.253 107.588 68.4913C106.6 70.1165 102.934 72.7478 101.868 72.6188C100.23 72.4125 99.112 71.071 98.28 68.3623C97.708 66.5307 97.812 64.4928 98.592 61.6551C99.398 58.74 99.424 58.5852 99.034 58.6626C97.916 58.8432 95.108 60.8296 93.028 62.9449C92.456 63.5125 89.518 67.6142 88.894 68.7235C87.932 70.4519 87.1 72.2577 87.1 72.6704C87.1 72.9542 87.022 73.2638 86.918 73.367C86.814 73.4443 86.606 73.9345 86.424 74.4246L86.112 75.3275H108.056H130L130.286 74.7084ZM145.652 74.76C145.574 74.4246 145.444 74.1151 145.34 74.0377C145.236 73.9603 145.08 73.109 144.976 72.1287C144.898 71.1484 144.768 70.2713 144.69 70.2197C144.612 70.1423 144.118 70.5551 143.598 71.1226C143.052 71.6901 142.116 72.4125 141.518 72.7478C140.894 73.0832 140.4 73.4443 140.4 73.5733C140.4 73.6765 140.27 73.7797 140.14 73.7797C139.984 73.7797 139.334 74.1151 138.632 74.5536L137.41 75.3275H141.622H145.808L145.652 74.76ZM150.41 72.9026C151.606 71.7675 153.374 68.7235 154.206 66.3501C154.466 65.5762 154.83 64.7765 154.986 64.5701C155.324 64.1832 155.532 58.4046 155.272 56.2377C155.116 55.051 155.012 54.8188 154.57 54.793C154.284 54.793 153.712 55.0768 153.322 55.438C152.386 56.2893 150.982 58.7142 150.93 59.5655C150.852 60.4426 149.734 64.5959 149.5 64.7507C149.136 65.0345 148.408 67.2272 148.122 68.9814C147.758 71.0968 147.966 72.98 148.642 73.4701C149.266 73.9087 149.344 73.8829 150.41 72.9026ZM54.028 69.678C55.406 68.9557 57.2 67.3562 57.2 66.8403C57.2 66.5823 56.966 66.1696 56.68 65.9116C56.394 65.6536 56.16 65.3183 56.16 65.1893C56.16 65.0345 55.952 64.6733 55.666 64.3896C53.638 62.1194 49.816 55.3864 48.256 51.3362C47.84 50.2785 47.268 48.8339 46.982 48.1374L46.462 46.8991L46.098 47.5956C45.136 49.4014 45.084 58.9464 45.994 62.687C47.06 66.9177 48.256 69.0072 50.128 69.807C51.194 70.2971 52.936 70.2197 54.028 69.678ZM103.584 68.6461C104.338 68.027 105.638 66.5823 106.158 65.7826C106.548 65.1635 106.574 64.9571 106.288 64.338C105.612 62.7128 103.844 60.133 103.168 59.7461C102.492 59.3333 102.44 59.3333 102.024 60.0041C100.75 61.8872 100.594 68.3881 101.764 69.1878C102.128 69.4458 102.96 69.1878 103.584 68.6461ZM109.85 60.5716C111.046 58.9464 111.254 58.3272 111.254 56.4957C111.28 54.5609 110.682 53.013 109.59 52.1617C108.316 51.1814 107.588 51.3878 105.56 53.3742C104.52 54.3803 103.74 55.3606 103.766 55.6185C103.766 55.9023 104.338 56.573 105.014 57.1406C105.716 57.7081 106.652 58.8174 107.146 59.5913C108.654 62.1194 108.706 62.1194 109.85 60.5716Z" fill="white"/>
</svg>
