<svg width="570" height="481" viewBox="0 0 570 481" fill="none" xmlns="http://www.w3.org/2000/svg">
<g clip-path="url(#clip0)">
<path d="M519.374 116.924C446.394 14.6514 292.229 -26.8349 140.613 17.8468C60.4576 41.4687 -16.8267 88.7987 -55.1269 180.445C-123.593 344.272 20.1599 396.595 114.158 413.27C159.611 421.334 202.42 434.879 241.538 453.32C311.917 486.498 436.492 515.897 530.429 377.696C598.515 277.528 567.985 185.048 519.374 116.924Z" fill="url(#paint0_linear)"/>
<path d="M96.2645 137.159C96.0603 135.533 95.6475 133.941 95.0362 132.423C94.9583 132.136 94.8218 131.868 94.6355 131.637C94.4492 131.406 94.2171 131.217 93.9541 131.081C93.6025 130.989 93.2339 130.985 92.8804 131.069L87.3678 131.918C86.9064 131.939 86.4647 132.112 86.1101 132.41C85.3921 133.171 86.0991 134.395 86.0771 135.444C86.0524 136.624 85.0116 137.581 83.883 137.898C82.7309 138.133 81.5425 138.118 80.3966 137.855L72.6884 136.648C74.9585 135.919 76.9792 134.561 78.5197 132.729C79.5341 131.519 80.0737 129.26 78.6077 128.687C78.1722 128.566 77.718 128.53 77.2689 128.579C73.7766 128.606 71.0284 125.669 67.7589 124.433C65.6664 123.692 63.395 123.637 61.2695 124.275C59.1441 124.913 57.2733 126.212 55.9249 127.985L60.0312 128.185C60.4175 128.163 60.8006 128.266 61.125 128.479C62.0249 129.223 60.9061 130.653 61.0328 131.819C61.1976 133.334 63.1948 133.658 64.7003 133.811C66.2059 133.964 68.1158 135.196 67.3916 136.534C59.8246 139.159 52.1244 131.403 44.1774 132.358C42.1661 132.599 40.2668 133.395 38.3031 133.895C26.3073 136.952 13.9058 128.797 1.65142 130.524C-1.07287 130.991 -3.75039 131.703 -6.34938 132.649C-8.01722 133.2 -9.75688 133.796 -10.9687 135.075C-12.1806 136.354 -12.6418 138.542 -11.4937 139.879C-14.658 140.142 -17.8434 139.837 -20.9019 138.979C-20.0749 139.442 -19.3868 140.12 -18.91 140.943C-18.4332 141.767 -18.1852 142.704 -18.1921 143.657C-23.1327 144.468 -27.9425 145.945 -32.4922 148.048C-31.643 149.47 -30.6512 150.8 -29.5324 152.019L-35.7871 156.065C-33.674 156.602 -32.5814 159.503 -33.8103 161.316C-31.6192 160.334 -30.2613 157.795 -27.9183 157.28C-26.3833 156.942 -24.8214 157.575 -23.3652 158.169C-21.9091 158.763 -20.3086 159.339 -18.8012 158.893C-17.2937 158.447 -16.1818 156.479 -17.1397 155.225C-10.6965 153.331 -4.03762 152.284 2.67193 152.107C3.18956 152.042 3.71451 152.142 4.17236 152.394C5.04578 153.005 4.81598 154.323 4.76894 155.392C4.72189 156.462 5.54959 157.867 6.49875 157.385C5.38206 158.36 6.33669 160.196 7.40804 161.222C8.47939 162.247 9.77067 163.662 9.11477 164.996C8.94358 165.344 8.65323 165.623 8.48852 165.974C8.00233 167.011 8.77427 168.22 9.68478 168.909C10.5953 169.597 11.7106 170.079 12.343 171.032C12.9755 171.986 12.6883 173.655 11.5573 173.788L8.34269 169.678C7.24439 170.824 6.49143 172.261 6.17114 173.822C9.57999 176.628 10.0927 182.34 7.23888 185.717C5.78048 187.442 3.70652 188.491 1.89642 189.837C0.0863113 191.183 -1.58862 193.099 -1.58407 195.365C-1.5762 199.28 -1.89382 202.917 -0.437183 206.546C2.24886 213.239 5.34999 219.754 8.84787 226.055C9.76643 227.71 10.9536 229.523 12.8144 229.808C10.4627 224.042 8.34569 218.187 6.4634 212.242C7.68938 212.247 9.10614 212.345 9.82484 213.345C10.42 214.173 10.2921 215.299 10.477 216.305C10.7122 217.279 11.1045 218.207 11.638 219.053L22.8681 239.199C23.799 240.869 24.8669 242.662 26.6461 243.338C27.7837 243.77 29.0998 243.689 30.1468 244.312C30.9675 244.799 31.5202 245.666 32.3569 246.125C34.7226 247.425 38.0122 244.932 40.223 246.484C40.8552 246.928 41.2573 247.633 41.8398 248.141C43.8816 249.921 47.2311 248.73 49.5882 250.059C51.1073 250.915 51.8945 252.627 52.7048 254.178C54.7344 258.065 58.0184 261.873 62.3681 262.182C63.7344 262.28 65.13 262.019 66.4656 262.325C67.8012 262.631 69.1159 263.805 68.9015 265.167C68.5339 267.503 69.6799 270.06 69.3721 272.405C68.8115 276.675 62.7967 278.552 62.2801 282.828C62.1669 283.764 62.344 284.731 62.1226 285.647C61.8513 286.77 61.0137 287.685 60.7161 288.801C60.1521 290.917 61.6572 293.023 63.3107 294.446C64.9641 295.869 66.9364 297.097 67.8404 299.089C68.7958 301.195 68.3265 303.651 68.6372 305.945C69.3156 310.953 73.6111 314.666 78.0318 317.06C79.3787 317.79 80.8249 318.496 81.6966 319.761C82.8345 321.413 82.7211 323.59 83.1011 325.564C84.0316 330.397 88.0715 334.379 88.1862 339.3C88.2677 342.798 86.3369 345.972 85.1835 349.273C84.1021 352.435 83.7108 355.795 84.0363 359.124C84.3617 362.452 85.3962 365.671 87.0692 368.56C87.9321 370.027 88.964 371.411 89.5744 373.001C90.6636 375.84 90.3102 379.067 91.3144 381.937C92.6422 385.731 96.2906 388.865 95.9414 392.873C97.5977 396.337 101.255 398.039 104.933 399.07L111.525 400.918C112.787 401.272 114.106 401.628 115.391 401.372C116.676 401.116 117.902 400.041 117.869 398.722C114.637 397.988 111.301 397.208 108.636 395.224C105.972 393.24 104.146 389.708 105.157 386.53C105.626 385.056 106.623 383.355 105.675 382.137C105.132 381.44 104.14 381.258 103.527 380.622C102.572 379.63 102.9 377.963 103.587 376.767C104.274 375.57 105.266 374.501 105.543 373.148C105.683 372.391 105.589 371.608 105.275 370.906C104.961 370.204 104.441 369.615 103.786 369.219C105.008 368.755 106.119 368.036 107.048 367.111C107.906 366.124 108.302 364.603 107.628 363.481C109.632 363.737 111.998 363.863 113.314 362.319C114.364 361.086 114.292 359.242 113.877 357.672C113.462 356.102 112.76 354.577 112.738 352.953C117.362 353.174 121.995 353.015 126.593 352.48C125.929 350.225 124.418 348.319 122.381 347.167C124.463 346.812 126.361 344.301 127.019 342.28C127.676 340.259 127.509 338.057 127.102 335.97C126.946 335.433 126.924 334.865 127.04 334.317C127.274 333.564 128.008 333.105 128.688 332.712L139.024 326.734C139.641 326.423 140.2 326.007 140.677 325.505C141.76 324.224 141.599 322.29 141.045 320.703C140.49 319.116 139.602 317.624 139.389 315.955C138.75 310.965 144.054 307.384 145.845 302.686C146.547 300.843 146.69 298.839 146.826 296.869C146.972 294.753 146.983 292.296 145.37 290.933C143.824 289.626 141.408 289.917 139.79 288.701C138.306 287.587 137.794 285.422 136.174 284.522C134.702 283.704 132.857 284.224 131.22 283.84C128.338 283.163 126.524 279.818 123.581 279.508C121.92 279.333 120.041 280.151 118.68 279.177C117.481 278.319 117.433 276.594 117.204 275.13C116.804 272.855 115.721 270.758 114.102 269.122C112.482 267.486 110.404 266.389 108.146 265.979C106.434 265.702 104.57 265.807 103.114 264.859C101.639 263.9 100.962 262.103 99.8038 260.775C97.9366 258.633 94.9956 257.872 92.2407 257.22L81.0347 254.567C79.0454 254.096 76.4812 253.846 75.4137 255.601C75.0977 256.269 74.874 256.978 74.7488 257.707C74.3488 259.026 73.5439 260.184 72.4496 261.013C71.3553 261.843 70.028 262.301 68.6586 262.323C67.7194 260.71 66.1979 259.524 64.4115 259.014C63.2752 258.695 62.0589 258.66 60.9752 258.19C60.385 257.9 59.8598 257.492 59.4317 256.99C59.0036 256.489 58.6817 255.904 58.4857 255.273C58.2896 254.642 58.2235 253.977 58.2914 253.319C58.3594 252.661 58.5599 252.024 58.8808 251.447C59.5268 250.289 59.7764 248.948 59.5908 247.633C59.4052 246.317 58.7949 245.1 57.854 244.169C55.9483 242.446 53.1917 242.029 50.6364 242.202C49.9671 240.731 51.0861 239.072 52.292 238.003C53.4979 236.934 54.9621 235.884 55.2247 234.288C55.6378 231.777 52.4571 229.87 50.0422 230.619C47.6272 231.368 46.0858 233.73 45.0669 236.058C44.4823 237.395 43.9853 238.801 43.0631 239.928C42.141 241.055 40.656 241.861 39.2514 241.5C37.2628 240.988 36.4948 238.609 36.0547 236.59C35.4642 233.881 34.8703 231.135 34.994 228.364C35.1178 225.594 36.0452 222.749 38.0737 220.874C41.3793 217.818 46.4502 218.117 50.9114 218.605C49.8574 217.409 50.1179 215.393 51.2456 214.268C51.8409 213.735 52.5562 213.356 53.3296 213.165C54.1029 212.974 54.9109 212.975 55.6835 213.17C57.0278 213.451 58.2388 214.181 59.1216 215.24C60.3893 216.796 60.7498 218.898 61.7081 220.665C62.6663 222.432 64.8209 223.939 66.5845 222.991C68.1078 222.172 68.3496 220.045 67.9705 218.348C67.5913 216.652 66.7861 215.002 66.9235 213.269C67.1855 209.961 70.5899 207.971 73.5941 206.609C76.5983 205.246 80.0383 203.414 80.5142 200.131C80.5305 199.489 80.6509 198.853 80.8707 198.249C81.2038 197.716 81.6669 197.277 82.2158 196.975C90.9836 191.14 99.8972 185.233 109.918 182.045C110.44 181.879 110.501 182.063 111.032 181.933C111.776 181.5 111.283 180.303 110.57 179.821C109.857 179.338 108.904 178.968 108.723 178.123C108.59 177.501 108.954 176.891 109.049 176.262C109.281 174.717 107.446 173.291 106.021 173.909C105.216 172.835 106.808 171.587 108.096 171.23C111.964 170.158 115.934 169.505 119.939 169.282C120.401 169.208 120.875 169.289 121.286 169.513C121.959 169.982 121.873 171.058 121.396 171.728C120.92 172.398 120.178 172.819 119.584 173.385C118.935 174.022 118.472 174.826 118.246 175.71C118.019 176.594 118.038 177.523 118.301 178.396C120.392 179.468 122.665 180.57 124.981 180.193C127.296 179.815 129.352 177.195 128.263 175.102C127.25 173.154 124.205 172.714 123.681 170.578C123.068 168.077 126.583 165.853 125.791 163.404C125.445 162.331 124.383 161.7 123.568 160.925C122.606 159.976 121.952 158.755 121.691 157.424C121.43 156.093 121.575 154.714 122.107 153.467C120.78 153.702 119.416 153.613 118.13 153.208C116.845 152.803 115.674 152.093 114.717 151.138C112.949 149.342 111.539 146.508 109.029 146.588C106.726 146.662 104.742 149.368 102.588 148.543C102.058 148.339 101.499 147.926 100.986 148.168C100.818 148.278 100.677 148.425 100.573 148.598C100.47 148.771 100.406 148.966 100.388 149.167C99.8412 151.802 100.783 154.805 99.3565 157.082C97.8045 159.56 94.2147 159.904 92.3332 162.139C91.3119 163.352 90.9162 164.986 89.9774 166.265C89.0386 167.544 87.0461 168.357 85.9195 167.242C86.4732 166.096 86.6244 164.794 86.3484 163.55C86.0724 162.306 85.3855 161.193 84.4 160.393C83.354 159.706 82.2265 159.154 81.0439 158.749C79.7225 158.186 78.4654 157.48 77.2946 156.645C76.7081 156.289 76.2316 155.775 75.9182 155.162C75.6703 154.394 75.7037 153.562 76.0123 152.816C76.5836 151.167 77.5914 149.706 78.927 148.591C80.2625 147.476 81.8751 146.75 83.5905 146.491C85.0906 146.285 86.8364 146.357 87.8291 145.206C88.3544 144.597 88.63 143.677 89.3924 143.429C89.8801 143.331 90.3864 143.393 90.8357 143.608L96.4347 145.593C97.0594 145.877 97.747 145.991 98.4292 145.925C98.7675 145.879 99.076 145.706 99.2929 145.441C99.5098 145.175 99.619 144.837 99.5985 144.494C99.4196 143.558 97.9889 143.108 98.1191 142.164C98.192 141.858 98.3554 141.581 98.5877 141.371C100.608 139.205 103.079 137.516 105.824 136.424C108.569 135.332 111.519 134.866 114.464 135.057C115.171 136.226 114.053 137.61 113.123 138.607C112.193 139.605 111.446 141.388 112.57 142.156C113.031 142.393 113.544 142.509 114.061 142.494C115.44 142.682 116.779 143.091 118.029 143.706C119.964 144.554 121.861 145.482 123.722 146.49C123.558 145.254 123.401 143.953 123.866 142.798C124.331 141.643 125.652 140.737 126.806 141.186C127.919 141.62 128.489 143.103 129.674 143.239C131.255 143.42 131.879 141.068 131.219 139.611C130.558 138.153 129.251 136.932 129.142 135.333C129.068 134.255 129.476 132.917 128.62 132.264C128.316 132.068 127.97 131.946 127.611 131.908L106.252 127.95C104.984 127.715 103.151 127.895 103.095 129.192C103.064 129.917 103.706 130.633 103.422 131.299C103.118 132.01 102.12 131.945 101.394 132.196C100.266 132.586 99.7005 133.934 99.8088 135.13C100.007 136.318 100.464 137.447 101.147 138.436C99.7574 137.851 97.6538 137.744 96.2645 137.159Z" fill="white" fill-opacity="0.2"/>
<path d="M79.2221 118.899C77.8752 118.45 76.4239 118.429 75.0648 118.839C73.7058 119.249 72.5048 120.07 71.6246 121.191C71.2729 121.657 70.9776 122.3 71.272 122.805C71.6941 123.529 72.7696 123.243 73.5626 122.984C74.7281 122.564 75.9967 122.534 77.1807 122.897C77.9253 123.154 78.5915 123.609 79.3393 123.857C79.7034 124.01 80.102 124.061 80.4924 124.004C80.8829 123.946 81.2504 123.783 81.5557 123.531C82.0689 123.004 82.1012 122.184 82.1021 121.446C82.1377 121.199 82.118 120.947 82.0446 120.708C81.9712 120.47 81.8459 120.251 81.6778 120.068C81.3784 119.893 81.042 119.793 80.6965 119.775C79.9228 119.631 79.2232 119.219 78.7185 118.611" fill="white" fill-opacity="0.2"/>
<path d="M86.9238 116.74C86.6224 116.723 86.3219 116.785 86.0511 116.919C85.7802 117.053 85.5483 117.256 85.3775 117.506C85.2067 117.757 85.1028 118.048 85.0758 118.35C85.0488 118.653 85.0996 118.958 85.2233 119.235C86.149 119.489 87.116 119.553 88.0667 119.422C88.5408 119.348 88.9825 119.134 89.3362 118.807C89.6899 118.481 89.9396 118.056 90.054 117.587C88.9348 117.792 87.7799 117.57 86.8145 116.964" fill="white" fill-opacity="0.2"/>
<path d="M112.763 113.133C110.244 113.673 107.797 114.51 105.472 115.627C106.568 116.052 107.5 116.819 108.129 117.817C108.759 118.814 109.054 119.989 108.971 121.169C108.873 121.621 108.884 122.091 109.004 122.539C109.272 123.193 110.048 123.438 110.73 123.606C111.956 123.981 113.236 124.146 114.516 124.092C115.156 124.058 115.778 123.865 116.325 123.528C116.872 123.191 117.327 122.722 117.649 122.164C117.835 121.634 118.052 121.116 118.301 120.613C119.936 118.105 124.794 121.137 126.549 118.713C127.168 117.859 127.111 116.574 127.917 115.897C128.334 115.603 128.818 115.417 129.324 115.357C132.854 114.65 136.421 114.139 140.007 113.825C141.706 113.676 143.921 113.061 143.935 111.344C137.535 110.078 130.899 110.977 125.058 113.901C122.954 114.962 120.171 117.195 118.144 115.788C117.385 115.261 117.423 113.842 116.379 113.25C115.311 112.644 113.897 112.891 112.763 113.133Z" fill="white" fill-opacity="0.2"/>
<path d="M133.693 117.075L136.698 117.656C136.145 117.631 135.593 117.726 135.079 117.933C134.565 118.14 134.101 118.455 133.717 118.857C133.334 119.259 133.04 119.739 132.855 120.265C132.671 120.79 132.599 121.349 132.646 121.905C135.46 122.851 138.527 121.93 141.491 122.056C144.454 122.182 147.902 124.314 147.396 127.257C147.243 128.147 146.733 129.037 146.998 129.9C147.184 130.504 147.714 130.933 148.013 131.49C148.636 132.651 148.138 134.119 147.351 135.174C146.565 136.229 145.508 137.07 144.817 138.191C143.1 140.98 144.076 144.585 145.099 147.7C145.395 148.877 145.941 149.975 146.699 150.919C148.215 152.541 150.684 152.683 152.896 152.715C154.505 152.739 156.349 152.659 157.367 151.403C158.696 149.763 157.767 147.205 158.642 145.28C159.436 143.532 161.461 142.783 163.295 142.251C166.656 141.276 170.08 140.448 173.257 138.977C177.202 137.149 180.889 134.301 185.225 134.066C186.441 134 187.688 134.145 188.86 133.809C190.031 133.474 191.144 132.453 191.056 131.23C190.98 130.184 190.102 129.417 189.415 128.628C188.729 127.84 188.19 126.628 188.821 125.795L200.186 123.657C199.38 121.446 198.753 118.534 200.604 117.095C201.272 116.575 202.166 116.368 202.735 115.74C203.704 114.67 203.217 112.827 202.098 111.917C200.979 111.007 199.466 110.796 198.033 110.676C193.049 110.259 188.038 110.535 183.045 110.81C173.284 111.349 163.524 111.888 153.764 112.427C151.799 112.535 149.531 112.369 147.729 113.044C146.203 113.616 145.118 114.665 143.374 115.034C140.153 115.714 136.608 115.254 133.693 117.075Z" fill="white" fill-opacity="0.2"/>
<path d="M187.514 140.99C187.208 140.941 186.895 141.012 186.639 141.189C186.471 141.376 186.37 141.616 186.355 141.868C186.161 142.982 186.392 144.129 187.002 145.078C187.312 145.544 187.741 145.918 188.243 146.16C188.746 146.403 189.304 146.505 189.859 146.458C191.211 146.284 192.208 145.122 193.452 144.555C195.369 143.681 203.509 142.32 197.878 139.256C195.937 138.2 194.684 139.132 193.154 139.828C191.414 140.724 189.464 141.126 187.514 140.99Z" fill="white" fill-opacity="0.2"/>
<path d="M236.834 115.345C236.177 115.616 235.627 116.098 235.27 116.716C235.106 117.031 235.067 117.396 235.163 117.738C235.259 118.08 235.482 118.371 235.785 118.552C236.031 118.642 236.291 118.683 236.552 118.674L239.226 118.755C240.361 118.789 241.78 119.033 242.085 120.135C242.312 120.953 241.805 122.005 242.417 122.59C242.679 122.795 242.995 122.919 243.326 122.947C244.207 123.175 245.127 123.205 246.02 123.035C247.965 122.509 246.943 121.314 247.556 120.249C248.493 118.62 248.331 119.606 249.983 118.673C251.202 117.983 252.779 116.732 251.761 114.975C249.99 111.919 239.447 114.032 236.834 115.345Z" fill="white" fill-opacity="0.2"/>
<path d="M289.602 113.809L288.05 114.017C284.549 114.488 281.029 114.963 277.657 116.021C279.116 116.603 280.648 116.981 282.209 117.146C283.068 117.189 283.921 117.311 284.758 117.511C286.247 117.958 287.748 119.111 289.187 118.52C290.079 118.154 290.37 117.218 291.109 116.723C291.619 116.38 293.555 115.826 293.771 115.481C295.52 112.687 290.947 113.628 289.602 113.809Z" fill="white" fill-opacity="0.2"/>
<path d="M296.419 120.915C294.346 122.082 292.422 123.501 290.69 125.14C289.961 125.83 289.216 126.689 289.282 127.695C289.37 129.032 290.784 129.808 292.009 130.33L296.972 132.446C297.574 131.591 297.023 130.412 296.401 129.572C295.779 128.732 295.039 127.761 295.314 126.75C295.628 125.597 297.024 125.204 298.195 125.005C300.103 124.681 305.249 124.707 304.63 121.611C303.902 117.963 298.334 119.837 296.419 120.915Z" fill="white" fill-opacity="0.2"/>
<path d="M295.421 327.368C294.949 328.746 294.904 330.368 295.721 331.571C296.638 332.921 298.474 333.424 300.061 333.081C301.643 332.658 303.052 331.745 304.091 330.472C305.041 329.406 305.823 328.199 306.409 326.893C307.226 324.858 307.803 322.733 308.127 320.562L309.667 312.415C310.012 310.594 309.998 305.011 306.675 306.83C305.767 307.327 303.665 311.25 302.714 312.363C300.999 314.368 300.772 316.313 299.87 318.743C298.739 321.785 296.467 324.321 295.421 327.368Z" fill="white" fill-opacity="0.2"/>
<path d="M470.943 369.062C469.856 368.634 468.8 368.129 467.785 367.548C466.767 370.366 466.226 373.336 466.184 376.334L473.625 372.094C474.745 371.456 476.013 370.57 475.989 369.275C475.999 369.115 475.967 368.955 475.894 368.812C475.822 368.67 475.712 368.549 475.578 368.464C475.413 368.397 475.232 368.376 475.056 368.402C473.953 368.495 472.947 369.041 471.906 369.422C470.865 369.802 469.648 370.003 468.693 369.439" fill="white" fill-opacity="0.2"/>
<path d="M510.195 371.579C509.379 371.803 508.581 372.092 507.809 372.442C506.102 373.317 504.94 374.979 503.403 376.131C501.933 377.234 500.163 377.839 498.425 378.428C497.914 378.883 498.149 379.799 498.704 380.199C499.3 380.541 499.985 380.696 500.669 380.644C502.474 380.684 504.376 380.702 505.958 379.824C506.849 379.242 507.682 378.575 508.447 377.833C510.296 376.28 512.517 375.255 514.714 374.264C515.514 373.96 516.254 373.515 516.899 372.949C518.28 371.579 518.377 369.465 516.385 368.999C514.776 368.622 511.728 371.08 510.195 371.579Z" fill="white" fill-opacity="0.2"/>
<path d="M527.539 360.17C527.628 359.227 527.504 358.276 527.175 357.389C526.846 356.502 526.321 355.701 525.64 355.048C525.619 356.935 525.563 358.944 524.509 360.504C523.758 361.616 522.581 362.366 521.759 363.425C520.937 364.484 520.572 366.162 521.536 367.091C522.153 367.563 522.904 367.824 523.679 367.834C525.599 368.062 527.821 368.189 529.168 366.791C529.903 366.029 530.261 364.9 531.157 364.339C531.491 364.198 531.79 363.983 532.03 363.71C532.4 363.117 531.812 362.336 531.15 362.123C530.488 361.909 529.758 362.01 529.093 361.807C528.428 361.604 527.817 360.85 528.158 360.241" fill="white" fill-opacity="0.2"/>
<path d="M496.714 291.006C495.707 291.253 494.664 291.315 493.634 291.189C491.925 290.873 490.594 289.575 489.214 288.511C485.933 285.995 481.945 284.592 477.822 284.503C474.072 284.431 470.287 285.455 466.603 284.741C466.844 286.089 467.989 287.1 469.211 287.701C470.433 288.302 471.782 288.604 473.01 289.193C474.977 290.145 476.536 291.779 477.403 293.796C477.799 294.725 478.048 295.737 478.647 296.549C479.871 298.208 482.192 298.572 484.241 298.437C486.911 298.26 489.7 297.486 492.185 298.488C494.085 299.255 495.446 300.93 497.033 302.233C498.62 303.535 500.855 304.502 502.677 303.562C500.784 302.945 499.137 301.735 497.975 300.108C496.814 298.481 496.199 296.523 496.221 294.52C498.008 294.685 503.156 294.621 502.878 291.563C502.643 288.971 498.249 290.727 496.714 291.006Z" fill="white" fill-opacity="0.2"/>
<path d="M473.334 312.094C473.651 310.341 475.387 308.794 474.846 307.097C474.473 305.924 473.122 305.345 471.899 305.316C470.676 305.287 469.474 305.654 468.251 305.688C467.455 305.646 466.657 305.657 465.862 305.723C463.435 306.124 461.938 308.687 459.65 309.598C458.259 310.152 456.696 310.046 455.249 310.429C451.965 311.299 449.887 314.424 447.591 316.944C443.881 320.998 439.049 323.836 433.719 325.092C431.851 325.527 429.844 325.806 428.36 327.027C426.394 328.644 425.91 331.417 425.473 333.935C424.265 340.89 422.418 347.716 419.957 354.327L427.756 355.329C429.239 355.52 430.775 355.707 432.204 355.264C433.242 354.87 434.225 354.342 435.129 353.695C438.602 351.523 442.49 350.11 446.54 349.547C448.582 349.265 450.723 349.213 452.639 349.977C454.556 350.742 456.2 352.476 456.361 354.545C457.189 354.285 458.073 354.257 458.916 354.464C459.759 354.671 460.531 355.104 461.149 355.718C462.37 356.971 463.17 358.579 463.435 360.314C463.641 361.389 463.846 362.676 464.836 363.127C465.644 363.494 466.57 363.098 467.454 363.027C470.452 362.786 472.94 366.306 475.887 365.7C479.048 365.05 479.824 360.283 482.907 359.328C484.678 358.78 487.162 359.446 488.01 357.788C488.758 356.325 487.267 354.638 487.42 353.001C487.61 350.985 489.971 350.129 491.791 349.269C498.067 346.303 501.045 337.796 498.004 331.523C496.202 327.805 492.657 324.879 492.002 320.796C491.498 317.654 492.728 313.99 490.739 311.517C489.727 310.259 488.014 309.565 487.412 308.063C487.033 307.119 487.185 306.046 486.981 305.048C486.777 304.05 485.913 303.006 484.934 303.265C482.093 304.016 481.186 312.855 479.665 315.002C477.353 318.267 472.606 316.116 473.334 312.094Z" fill="white" fill-opacity="0.2"/>
<path d="M420.82 294.346C419.849 294.072 418.788 293.802 417.858 294.193C416.928 294.585 416.385 295.961 417.131 296.643C422.972 296.414 428.849 296.187 434.641 296.985C441.313 297.906 447.917 300.186 454.619 299.515C450.791 298.378 446.899 297.468 442.965 296.791L436.404 295.529C434.643 295.158 432.865 294.881 431.076 294.7C427.333 294.389 424.5 295.385 420.82 294.346Z" fill="white" fill-opacity="0.2"/>
<path d="M426.667 273.858C426.182 273.818 425.582 273.782 425.331 274.202C425.091 274.603 425.365 275.133 425.237 275.583C425.061 276.198 424.261 276.355 423.632 276.271C423.002 276.188 422.321 275.987 421.763 276.293C421.48 276.488 421.268 276.769 421.157 277.096C421.047 277.423 421.044 277.777 421.151 278.105C421.379 278.756 421.748 279.348 422.231 279.838C423.056 280.885 423.996 281.835 425.033 282.669C427.041 284.161 429.76 284.881 431.025 287.047C431.203 287.467 431.477 287.839 431.825 288.132C432.432 288.519 433.224 288.224 433.877 287.924L436.168 286.869C436.581 286.72 436.949 286.467 437.239 286.136C437.762 285.421 437.441 284.404 437.002 283.633C436.562 282.863 436 282.066 436.094 281.182C436.262 279.607 438.273 279.005 439.1 277.657C439.933 276.299 439.391 274.549 439.487 272.955C439.599 271.091 440.762 268.667 438.891 267.274C437.301 266.091 435.781 267.184 434.639 268.491C432.232 271.246 431.093 274.231 426.667 273.858Z" fill="white" fill-opacity="0.2"/>
<path d="M440.573 246.009C441.355 247.517 442.985 248.417 443.838 249.885C444.763 251.477 444.657 253.534 445.66 255.077C446.689 256.66 448.76 257.501 449.337 259.301C449.967 261.267 448.538 263.657 449.677 265.374C449.889 265.655 450.158 265.888 450.464 266.059C450.771 266.23 451.11 266.335 451.459 266.368C451.808 266.4 452.16 266.359 452.492 266.247C452.825 266.135 453.13 265.955 453.39 265.718C453.87 265.191 454.128 264.496 454.107 263.781C454.086 263.066 453.788 262.388 453.278 261.891C452.603 261.271 451.634 261.004 451.071 260.28C450.778 259.863 450.582 259.384 450.5 258.879C450.193 257.423 450.242 255.914 450.643 254.482C450.794 254.119 450.832 253.718 450.753 253.332C450.499 252.59 449.501 252.537 448.801 252.193C447.21 251.411 447.248 249.149 447.526 247.389C447.341 248.561 443.195 246.567 442.761 245.903C441.898 244.584 442.368 242.039 442.197 240.582C440.335 241.485 439.617 244.165 440.573 246.009Z" fill="white" fill-opacity="0.2"/>
<path d="M398.801 269.213C398.036 268.35 396.883 267.447 395.857 267.968C395.074 268.365 394.859 269.455 395.166 270.282C395.54 271.085 396.115 271.776 396.835 272.287C398.973 274.062 401.276 275.665 403.141 277.73C406.479 281.424 408.248 286.409 411.878 289.812C412.608 290.601 413.574 291.128 414.629 291.312C415.687 291.411 416.874 290.729 416.996 289.666C417.096 288.791 416.49 288.007 415.898 287.359C414.488 285.814 412.944 284.392 411.612 282.778C410.997 282.158 410.611 281.345 410.517 280.474C410.51 279.605 411.297 278.695 412.133 278.91C411.116 278.648 410.362 276.942 408.87 276.622C407.622 276.353 407.321 277.131 405.836 276.49C403.005 275.267 400.784 271.448 398.801 269.213Z" fill="white" fill-opacity="0.2"/>
<path d="M465.326 185.203C464.514 184.96 463.716 184.672 462.934 184.342C460.832 183.707 458.051 185.263 458.331 187.455C458.517 188.912 459.863 189.894 460.607 191.157C461.709 193.031 461.415 195.407 460.836 197.505C460.694 198.155 460.423 198.769 460.04 199.312C459.505 199.884 458.866 200.347 458.157 200.676C455.318 202.279 452.814 204.421 450.785 206.983C450.564 207.22 450.41 207.512 450.34 207.829C450.239 208.569 450.978 209.108 451.396 209.725C452.324 211.097 451.653 212.942 451.745 214.599C451.731 214.833 451.776 215.067 451.877 215.279C451.978 215.49 452.131 215.672 452.321 215.808C452.88 216.094 453.543 215.608 453.846 215.055C454.852 213.219 454.094 210.274 455.981 209.389C456.338 209.221 456.771 209.151 457.009 208.835C457.387 208.334 457.022 207.592 457.214 206.994C457.501 206.095 458.722 206.054 459.659 206.094C461.273 206.162 462.887 205.946 464.427 205.455C465.031 205.31 465.58 204.99 466.005 204.534C466.569 203.826 466.519 202.817 466.406 201.916C465.842 197.422 464.428 193.079 462.242 189.12C463.9 189.334 465.703 189.518 467.134 188.648C467.935 188.161 468.895 186.705 468.498 185.713C467.87 184.145 466.735 185.465 465.326 185.203Z" fill="white" fill-opacity="0.2"/>
<path d="M252.825 209.917C253.024 210.989 253.219 212.117 252.87 213.149C252.521 214.18 251.424 215.043 250.389 214.726C249.585 214.481 249.121 213.667 248.55 213.047C245.376 209.596 238.215 211.594 236.254 207.324C235.454 205.582 235.997 203.494 235.452 201.655C235.107 200.592 234.422 199.674 233.504 199.046C232.585 198.418 231.485 198.114 230.377 198.184C229.367 198.331 228.383 198.626 227.457 199.061C221.258 201.562 214.749 203.201 208.111 203.934C206.849 204.012 205.601 204.24 204.394 204.616C201.668 205.611 199.805 208.156 198.48 210.753C197.155 213.35 196.176 216.161 194.399 218.468C192.532 220.893 189.915 222.591 187.473 224.428C186.533 225.038 185.75 225.865 185.189 226.839C184.66 227.933 184.689 229.206 184.73 230.422L185.229 245.196C185.294 247.096 185.374 249.064 186.219 250.765C187.273 252.889 189.356 254.279 190.802 256.155C192.277 258.083 193.045 260.465 192.977 262.897C192.946 263.875 192.849 265.032 193.606 265.646C194.066 265.947 194.604 266.103 195.152 266.094L214.996 267.73C218.487 268.018 222.355 268.491 224.634 271.169C225.71 272.433 226.574 274.251 228.221 274.386C228.928 274.445 229.616 274.152 230.323 274.096C232.106 273.954 233.672 275.317 234.661 276.818C236.157 279.106 236.836 281.839 236.587 284.567C236.425 286.28 235.898 287.945 235.784 289.662C235.351 296.193 240.849 301.868 240.956 308.413C241.019 312.263 239.204 315.86 237.435 319.273C240.29 323.63 237.952 329.431 239.089 334.524C240.167 339.356 244.168 343.139 245.165 347.989C245.621 350.209 245.647 352.941 247.591 354.084C248.444 354.503 249.39 354.694 250.337 354.638C256.052 354.706 261.701 353.411 266.822 350.859C269.226 349.657 271.717 347.864 272.137 345.195C272.476 343.042 271.392 340.634 272.495 338.759C273.795 336.55 277.125 336.725 279.038 335.026C282.142 332.269 279.722 327.013 280.979 323.043C282.109 319.474 286 317.578 287.928 314.375C288.687 312.998 289.232 311.511 289.543 309.968C290.427 306.278 290.977 302.515 291.186 298.726C291.238 296.423 291.406 294.125 291.691 291.84C293.771 278.831 306.541 270.12 310.687 257.622C311.083 256.429 311.269 254.839 310.215 254.164C309.59 253.863 308.881 253.788 308.207 253.952L299.059 255.113C297.923 255.258 296.719 255.393 295.675 254.917C294.632 254.442 293.884 253.113 294.438 252.103C295.991 249.269 292.795 245.687 291.376 242.783C287.552 234.962 282.998 227.525 277.776 220.572C277.442 220.215 277.233 219.757 277.18 219.269L279.776 219.356C278.9 216.189 277.454 212.723 274.399 211.565C272.677 210.912 270.771 211.138 268.934 211.239C263.673 211.528 258.032 210.728 252.825 209.917Z" fill="white" fill-opacity="0.2"/>
<path d="M268.938 138.549C270.315 140.022 271.858 141.583 273.85 141.839C277.368 142.293 279.897 138.629 281.508 135.446C281.568 136.257 281.939 137.013 282.544 137.553C283.148 138.093 283.938 138.374 284.745 138.336C285.613 138.189 286.442 137.863 287.18 137.378C294.15 133.541 301.958 131.508 309.902 131.462C309.826 130.856 309.975 130.243 310.321 129.741C310.667 129.24 311.185 128.885 311.776 128.745C313.391 128.423 314.846 129.829 315.625 131.29C316.404 132.751 316.89 134.444 318.128 135.537C319.365 136.631 321.762 136.583 322.251 135C322.72 133.48 321.148 132.183 319.841 131.287C318.535 130.391 317.158 128.732 318.038 127.409C324.712 125.922 331.428 124.428 338.258 124.132C339.42 124.173 340.579 123.972 341.661 123.542C342.703 123.027 343.531 121.859 343.251 120.725C341.76 121.078 340.199 120.975 338.767 120.431C337.334 119.887 336.095 118.926 335.207 117.669C344.684 116.882 354.763 116.211 363.162 120.701C364.17 122.88 359.033 124.693 360.407 126.658C360.846 127.285 361.724 127.358 362.485 127.373C368.321 127.482 374.191 127.589 379.961 126.701C382.07 126.377 384.2 125.919 386.317 126.182C389.844 126.62 392.86 128.99 396.329 129.762C397.741 130.077 399.324 130.088 400.514 129.26C401.705 128.433 402.216 126.55 401.241 125.475C404.507 122.251 409.929 123.05 414.238 124.593C418.547 126.137 422.629 128.626 427.19 128.97C430.461 129.217 433.777 128.331 437.009 128.894C439.039 129.248 440.929 130.158 442.914 130.717C446.668 131.774 450.639 131.551 454.537 131.602C464.482 131.737 474.318 133.705 483.559 137.409C484.761 137.804 485.862 138.459 486.785 139.329C487.645 140.256 488.083 141.697 487.506 142.825L477.957 141.419C478.857 143.203 481.184 143.507 483.074 144.122C484.964 144.738 486.924 146.84 485.788 148.481C483.74 147.824 481.884 149.886 480.85 151.784C479.815 153.681 478.555 155.953 476.408 156.069C474.486 156.172 472.162 154.524 470.909 155.996C472.64 158.194 474.122 160.581 475.328 163.11C476.566 165.706 477.447 168.978 475.774 171.315C475.511 171.732 475.112 172.043 474.645 172.196C473.279 172.545 472.392 170.861 471.412 169.841C470.177 168.556 468.31 168.192 466.638 167.589C464.966 166.986 463.205 165.8 463.074 164.016C462.993 162.907 463.575 161.875 464.003 160.849C464.724 159.121 465.038 157.248 464.924 155.377C464.83 153.872 464.411 152.306 463.337 151.254C462.264 150.202 460.41 149.868 459.258 150.832C458.72 151.281 458.289 152 457.591 152.027C456.357 152.075 455.41 149.908 454.417 150.648C454.533 151.436 454.371 152.24 453.959 152.92C450.996 155.514 446.446 154.416 442.627 155.333C440.811 155.856 439.072 156.621 437.456 157.607C436.852 157.867 436.338 158.302 435.979 158.856C435.502 159.789 436.028 160.984 436.868 161.604C437.759 162.155 438.76 162.499 439.799 162.612C444.455 163.5 449.179 164.875 452.855 167.886C456.53 170.898 458.941 175.876 457.778 180.502L448.596 171.667C448.945 175.377 449.143 179.097 449.19 182.827C449.249 183.555 449.15 184.288 448.899 184.974C448.244 186.429 446.47 186.919 444.916 187.241C444.484 187.324 444.073 187.497 443.713 187.751C443.352 188.005 443.048 188.333 442.822 188.713C442.596 189.093 442.452 189.517 442.4 189.957C442.348 190.397 442.389 190.844 442.521 191.267C443.073 193.08 444.45 194.493 445.711 195.902C446.972 197.31 448.213 198.911 448.378 200.8C448.543 202.689 447.128 204.819 445.249 204.687C443.825 204.588 442.769 203.304 442.161 202.003C441.554 200.702 441.192 199.252 440.28 198.147C437.517 194.801 431.312 196.235 428.838 192.668C428.207 193.388 427.77 194.259 427.567 195.198C427.364 196.137 427.403 197.112 427.68 198.031C428.832 197.306 430.408 197.98 431.273 199.035C432.138 200.089 432.546 201.441 433.225 202.626C434.142 204.224 435.601 205.641 435.729 207.483C435.695 208.179 435.706 208.877 435.763 209.571C435.991 210.687 436.927 211.488 437.576 212.421C439.087 214.591 439.012 217.572 438.039 220.034C437.065 222.496 435.316 224.553 433.583 226.547C430.557 230.031 427.469 233.494 423.881 236.388C422.857 237.213 421.765 238.025 421.127 239.179C420.489 240.333 420.457 241.953 421.436 242.831C420.735 242.866 419.478 243.214 418.777 243.249C418.531 240.417 418.477 237.571 418.617 234.731C415.85 233.393 412.871 236.976 413.228 240.046C413.585 243.116 415.79 245.579 417.36 248.235C418.507 250.177 419.361 252.442 418.977 254.669C418.594 256.896 416.62 258.95 414.384 258.754C410.828 258.442 409.34 253.3 405.819 252.712C405.508 252.638 405.182 252.671 404.892 252.804C404.369 253.093 404.278 253.798 404.249 254.397C404.105 257.341 403.98 260.402 405.121 263.117C406.791 267.087 411.103 270.422 410.199 274.637C405.325 272.356 402.791 266.852 401.641 261.565C400.49 256.278 400.299 250.728 398.236 245.73C396.67 247.751 393.379 246.08 391.948 243.959C390.592 241.949 389.756 239.624 388.44 237.586C387.124 235.549 385.108 233.724 382.697 233.612C380.17 233.495 377.977 235.242 376.049 236.892C374.464 238.25 372.836 239.66 371.91 241.536C370.561 244.267 370.914 247.485 370.849 250.534C370.779 253.83 370.085 257.307 367.855 259.72C365.624 262.133 361.507 262.973 359.047 260.799C357.762 259.664 357.14 257.967 356.587 256.339C353.916 248.491 351.693 240.496 349.926 232.393C349.513 234.242 347.9 236.626 346.359 235.536C346.014 235.244 345.734 234.88 345.538 234.47C342.664 229.565 337.342 226.623 331.966 224.859C326.589 223.095 320.932 222.273 315.615 220.334C312.635 219.247 309.789 217.819 307.132 216.079C306.455 217.081 306.06 218.249 305.988 219.458C305.916 220.668 306.171 221.875 306.725 222.951C307.904 225.054 310.573 226.271 312.858 225.536C314.039 225.156 315.036 224.331 316.207 223.923C317.379 223.515 318.951 223.716 319.463 224.852C319.954 225.94 319.213 227.256 319.58 228.392C320.14 230.122 322.731 230.256 323.637 231.83C324.311 233.002 323.757 234.557 322.794 235.502C321.832 236.448 320.547 236.966 319.373 237.624C315.56 239.759 312.849 243.404 309.517 246.239C306.185 249.075 301.485 251.145 297.514 249.326C298.46 244.499 292.751 240.956 291.701 236.151C291.355 234.569 291.534 232.889 291.041 231.348C290.326 229.117 288.361 227.583 286.748 225.892C284.792 223.818 283.268 221.372 282.266 218.696C281.265 216.02 280.805 213.169 280.915 210.311C281.002 208.325 281.365 206.307 280.915 204.371C280.466 202.436 278.875 200.563 276.903 200.65C272.4 200.851 266.726 201.188 264.363 197.322C263.52 195.942 263.153 193.921 264.372 192.863C265.232 192.118 266.502 192.188 267.631 192.3L277.779 193.305C280.152 193.54 282.718 193.734 284.754 192.485C286.791 191.235 287.673 187.918 285.787 186.448C284.409 185.374 281.941 185.432 281.54 183.725C281.207 182.302 282.77 180.688 281.926 179.5C281.32 178.647 279.959 178.884 279.134 179.523C278.31 180.162 277.711 181.096 276.788 181.58C275.169 182.429 273.234 181.621 271.492 181.072C269.75 180.523 267.415 180.476 266.57 182.106C265.625 183.928 267.408 186.316 266.47 188.142C265.23 190.556 261.031 189.182 259.29 191.259C257.292 193.642 260.65 197.195 259.976 200.239C259.115 200.668 258.159 200.865 257.201 200.811C256.242 200.757 255.314 200.453 254.507 199.93C253.713 199.386 253.08 198.636 252.676 197.759C252.272 196.882 252.111 195.91 252.211 194.949C252.378 193.579 253.087 192.181 252.612 190.887C252.228 189.841 251.185 189.218 250.215 188.679L240.354 183.191C239.439 184.901 240.596 187.022 242.044 188.306C243.491 189.591 245.304 190.558 246.255 192.249C246.857 193.42 246.992 194.779 246.632 196.047C246.273 197.315 245.446 198.397 244.322 199.072C244.181 199.17 244.02 199.236 243.851 199.266C243.683 199.296 243.51 199.288 243.344 199.244C243.187 199.151 243.05 199.027 242.941 198.88C242.832 198.732 242.753 198.564 242.71 198.386C240.97 193.902 238.358 189.481 234.182 187.138C230.005 184.796 224.004 185.277 221.266 189.223C220.615 190.16 220.179 191.229 219.612 192.22C216.601 197.484 210.147 199.977 204.117 199.814C203.527 199.847 202.94 199.708 202.427 199.414C201.452 198.736 201.496 197.298 201.645 196.114L202.278 191.093C202.405 190.085 202.59 188.97 203.382 188.34C204.499 187.453 206.111 188.013 207.533 187.992C208.611 187.942 209.647 187.558 210.502 186.894C211.356 186.231 211.987 185.318 212.309 184.281C212.596 183.234 212.594 182.127 212.303 181.081C212.012 180.035 211.443 179.088 210.658 178.343C210.006 177.726 209.131 176.952 209.475 176.12C209.612 175.89 209.798 175.693 210.019 175.543C210.24 175.393 210.491 175.294 210.755 175.252C213.31 174.505 216.01 174.309 218.523 173.427C221.036 172.546 223.473 170.741 224.068 168.129C224.25 167.329 224.333 166.359 225.047 165.963C225.405 165.81 225.79 165.731 226.179 165.73C227.541 165.534 228.782 164.833 229.656 163.763C230.53 162.693 230.975 161.332 230.903 159.948C232.107 159.1 233.794 159.724 234.959 160.625C236.124 161.526 237.153 162.717 238.571 163.106C241.212 163.83 243.765 161.474 246.503 161.463C247.655 161.459 248.847 161.869 249.93 161.476C251.028 161.077 251.683 159.976 252.526 159.163C253.369 158.35 254.848 157.854 255.626 158.73L254.963 153.786C256.298 154.126 257.689 154.174 259.044 153.927C260.398 153.681 261.685 153.145 262.817 152.357L254.252 149.442C253.954 149.367 253.679 149.219 253.451 149.011C252.829 148.336 253.447 147.284 253.953 146.516C255.165 144.68 255.368 141.655 253.376 140.741C252.016 140.117 250.456 140.866 249.151 141.599L242.9 145.109C242.701 146.306 244.154 146.984 245.055 147.79C245.599 148.277 245.985 148.92 246.161 149.632C246.336 150.344 246.294 151.094 246.039 151.781C245.784 152.469 245.329 153.063 244.733 153.485C244.136 153.908 243.427 154.138 242.699 154.147C243.11 154.686 243.396 155.312 243.535 155.977C243.675 156.642 243.663 157.331 243.503 157.991L239.297 158.296C238.825 158.391 238.334 158.295 237.933 158.027C237.483 157.625 237.544 156.92 237.439 156.323C237.188 154.883 235.788 153.874 234.358 153.615C232.929 153.356 231.467 153.688 230.052 154.015C229.451 154.233 228.791 154.218 228.201 153.972C227.862 153.751 227.605 153.424 227.469 153.041C226.848 151.526 227.428 149.746 228.424 148.45C229.421 147.155 230.785 146.207 232.01 145.129C234.94 142.54 237.092 139.178 238.225 135.422C240.54 134.445 242.937 133.118 245.252 132.141C248.822 130.32 252.825 129.539 256.811 129.885L264.652 130.036C266.974 130.081 269.358 130.138 271.504 131.029C273.651 131.92 275.537 133.848 275.685 136.182C275.73 136.446 275.708 136.717 275.62 136.97C275.532 137.223 275.381 137.449 275.183 137.628C274.88 137.794 274.536 137.872 274.191 137.853C272.026 137.929 271.103 138.473 268.938 138.549Z" fill="white" fill-opacity="0.2"/>
<path d="M206.44 163.297C206.746 163.005 206.967 162.634 207.077 162.224C207.188 161.814 207.184 161.381 207.066 160.973C206.32 160.684 205.509 160.609 204.724 160.759C203.939 160.908 203.211 161.275 202.622 161.819C202.157 162.292 201.757 162.825 201.431 163.404C200.401 165.097 199.489 167.119 200.086 169.011C200.135 169.217 200.224 169.412 200.349 169.583C200.473 169.754 200.63 169.899 200.81 170.008C201.078 170.116 201.367 170.162 201.654 170.141C202.789 170.14 203.923 170.07 205.05 169.931C205.742 169.846 206.545 169.649 206.813 169.001C207.164 168.148 206.314 167.184 206.562 166.296C206.725 165.898 206.972 165.542 207.286 165.251C207.442 165.104 207.562 164.923 207.636 164.722C207.71 164.52 207.737 164.304 207.713 164.091C207.613 163.674 206.98 163.438 206.751 163.8" fill="white" fill-opacity="0.2"/>
<path d="M212.326 155.613C211.317 155.379 210.278 155.314 209.249 155.418C209.021 155.411 208.795 155.463 208.593 155.568C208.397 155.714 208.255 155.921 208.189 156.157C207.971 156.86 208.025 157.62 208.338 158.284C208.652 158.949 209.203 159.471 209.881 159.745C210.251 159.831 210.605 159.974 210.931 160.17C211.801 160.85 211.246 162.24 211.411 163.336C211.596 164.568 212.78 165.602 212.563 166.828C212.392 167.794 211.367 168.559 211.532 169.527C211.705 170.54 212.981 170.844 213.999 170.925C214.588 171.029 215.195 170.959 215.746 170.724C216.299 170.343 216.691 169.77 216.849 169.115C217.266 167.867 217.441 166.549 217.365 165.234C217.36 164.636 217.211 164.048 216.93 163.521C216.624 163.104 216.284 162.712 215.915 162.35C213.965 160.067 216.018 156.66 212.326 155.613Z" fill="white" fill-opacity="0.2"/>
<path opacity="0.8" d="M468.662 334.498C468.662 334.498 319.361 248.19 255.085 264.543C255.085 264.543 118.864 279.306 103.077 311.785C103.077 311.785 59.7755 175.509 43.9884 170.967" stroke="#121E38" stroke-width="2" stroke-miterlimit="10"/>
<path opacity="0.8" d="M103.077 311.785C128.111 244.556 353.641 170.058 353.641 170.058C321.616 178.235 255.085 264.543 255.085 264.543C255.085 264.543 114.354 161.427 43.9884 170.966C43.9884 170.966 353.867 181.187 468.662 334.498" stroke="#121E38" stroke-width="2" stroke-miterlimit="10"/>
<path d="M43.9884 177.553C47.6005 177.553 50.5287 174.604 50.5287 170.966C50.5287 167.329 47.6005 164.38 43.9884 164.38C40.3762 164.38 37.448 167.329 37.448 170.966C37.448 174.604 40.3762 177.553 43.9884 177.553Z" fill="#121E38"/>
<path d="M103.077 318.372C106.689 318.372 109.618 315.423 109.618 311.785C109.618 308.148 106.689 305.199 103.077 305.199C99.4651 305.199 96.5369 308.148 96.5369 311.785C96.5369 315.423 99.4651 318.372 103.077 318.372Z" fill="#121E38"/>
<path d="M468.662 341.085C472.274 341.085 475.202 338.136 475.202 334.498C475.202 330.86 472.274 327.911 468.662 327.911C465.05 327.911 462.121 330.86 462.121 334.498C462.121 338.136 465.05 341.085 468.662 341.085Z" fill="#121E38"/>
<path d="M255.085 271.13C258.697 271.13 261.625 268.181 261.625 264.543C261.625 260.905 258.697 257.956 255.085 257.956C251.472 257.956 248.544 260.905 248.544 264.543C248.544 268.181 251.472 271.13 255.085 271.13Z" fill="#121E38"/>
</g>
<defs>
<linearGradient id="paint0_linear" x1="248.5" y1="0" x2="248.5" y2="481" gradientUnits="userSpaceOnUse">
<stop stop-color="#0D112A"/>
<stop offset="1" stop-color="#14243F"/>
</linearGradient>
<clipPath id="clip0">
<rect width="643" height="481" fill="white" transform="translate(-73)"/>
</clipPath>
</defs>
</svg>
